PathFileType	4	(X/Y/Z)	C:\Users\°ÂÌØÂü\Desktop\20210112\bx_n_10_902-Unnamed.trc
DataRate	CameraRate	NumFrames	NumMarkers	Units	OrigDataRate	OrigDataStartFrame	OrigNumFrames
50.00	50.00	       7	0	mm	50.00	364	       484
Frame#	Time	
		

364	7.260	-138.88237	113.40224	1315.92981	-774.09253	207.33887	536.29028	-676.30316	176.83542	163.89563	-671.73688	52.74463	163.19267	-933.34131	82.56168	1093.52148	-364.10620	267.24103	1139.30774	-851.66595	253.59361	626.98950	-836.32043	249.48930	563.29382	-855.17651	263.38123	484.17990	-517.94147	-72.69354	142.89064	-751.09631	-8.59102	800.33508	-597.03247	26.87802	167.06587	-765.32397	234.27039	1010.96210	-721.43146	159.77957	223.56538	-799.10608	184.83871	179.70758	-773.11273	233.01463	201.94073	-593.40399	219.37721	173.94469	-882.57153	295.86026	144.47171	-556.85242	253.31444	163.05328	-758.49640	11.21451	524.08887	-622.15607	305.82785	157.34738	-527.97363	304.00632	146.23570	-658.66272	299.61383	156.73657	-802.53973	66.69009	564.04822	-791.92084	37.52945	170.97906	-837.63580	-54.63322	469.84409	-549.13239	-27.72745	163.42813	-761.31934	-21.64159	201.86449	-875.79388	-78.47688	141.16841	-725.31165	65.80218	220.46925	-833.32623	-71.58172	745.12909	-820.36456	-43.81451	608.16571	-818.47150	-41.10427	558.05328	-754.59741	-8.28376	990.95038	-605.88501	-75.18076	156.83122	-647.44470	-66.96278	162.63931	-759.42908	207.54498	812.18872	-338.31964	-50.82470	1121.17834	-869.15521	278.91327	866.22839	-847.94385	275.43732	730.29016							-834.80481	-77.59658	862.47491	
365	7.280	-147.85358	113.12585	1342.94250	-772.77698	207.21436	536.72595	-676.30316	176.83542	163.89563	-671.06873	52.44193	162.95308	-932.90765	81.07452	1092.76208				-850.50165	252.44392	627.24890	-834.98102	249.13768	563.65588	-854.29291	262.83511	484.56412	-517.85950	-72.74191	142.93260	-748.55841	-9.19315	800.89819	-597.12982	26.90819	167.05588	-763.60205	233.57948	1013.29437	-721.29822	159.71959	223.44872	-798.93579	185.28513	179.81470	-772.97559	232.96851	201.85588	-593.43951	219.57626	174.00903	-882.51855	295.82053	144.50360	-557.29669	253.95633	163.65601	-757.14978	10.31575	523.41534	-622.09076	306.00064	157.33769	-527.72229	304.26624	146.75352	-658.56879	299.52444	156.81145	-801.02795	65.83996	564.06598	-792.04193	37.86495	171.09435	-836.91095	-55.12315	470.44019	-549.43158	-27.71898	163.24538	-761.32068	-21.91705	201.40997	-875.88751	-78.54328	141.29303	-725.31165	65.80218	220.46925	-831.55682	-72.41259	745.72174	-819.12073	-43.60025	607.73077	-816.80127	-41.41068	558.22827	-751.81879	-8.73729	993.73999	-606.07324	-75.24014	156.81093	-647.33765	-66.94367	162.51036	-757.13196	207.83795	812.60913	-342.39658	-51.79894	1140.46521	-867.65906	277.97305	867.10333	-846.56287	275.15881	730.81329	-800.13666	145.29057	567.67999				-832.30188	-78.29141	862.34717	
366	7.300	-157.48340	111.87692	1370.21814	-771.31024	206.82430	536.78827	-676.07715	176.44969	164.18204	-671.06641	52.80112	163.65732	-932.45142	79.82697	1091.86560	-372.04816	267.82620	1176.27112	-848.78192	251.79927	627.64447	-833.95929	248.40495	564.28857	-853.04681	261.94232	484.79694	-517.74847	-72.78184	142.88008	-746.03607	-11.09316	800.54657	-596.68280	27.03760	166.96692	-762.50256	233.01590	1016.20941	-720.86749	159.70038	222.97418	-798.77826	185.02440	179.82146	-772.95520	232.95230	201.77275	-593.66132	219.61507	174.19749	-882.66656	296.01099	144.51521	-556.98407	253.66515	163.67397	-755.12891	9.50068	523.61975	-622.21356	305.94284	157.43806	-527.97546	303.83563	146.43985	-658.57861	299.52142	156.82092	-799.24408	65.09937	564.25220	-791.87122	37.62206	170.96323	-835.39111	-55.64497	470.48703	-549.38599	-27.59151	163.32251	-761.33862	-21.82154	201.83922	-875.77466	-78.71300	141.22229	-725.31165	65.80218	220.46925	-829.09637	-73.16282	745.66693	-817.15588	-44.41515	607.65631	-815.29303	-42.23894	558.71320	-749.08868	-9.63206	996.94415	-605.86450	-75.21565	156.59302	-647.45221	-67.07973	162.60753	-754.98077	207.94586	813.07935				-865.63141	277.36618	867.28784	-845.16656	274.30914	731.46350	-798.45221	143.76262	568.68146				-829.59283	-79.06797	863.19409	
367	7.320	-168.45630	111.35944	1397.63171	-769.68268	206.07578	536.89368	-675.94464	176.62685	163.83617	-671.06641	52.80112	163.65732	-931.19287	78.83015	1091.05554				-847.32074	250.97687	628.29510	-832.30157	247.99301	564.46234	-851.94250	261.27417	485.36505	-517.74847	-72.78184	142.88008	-743.22778	-12.35829	801.14337	-596.87396	26.96067	167.01076	-760.49084	231.88240	1018.72839	-720.84979	159.63548	222.87521	-798.62646	184.95845	179.72986	-772.93146	232.54173	201.75023	-593.85284	219.63527	174.17789	-882.52582	295.95703	144.64645	-556.78662	253.58653	163.90915	-753.06903	8.85633	524.33905	-622.30634	306.12650	157.24159	-527.77448	303.83029	146.51163	-658.56415	299.46039	156.98726	-796.94238	64.74354	564.63409	-791.89679	37.59635	171.08238	-833.57715	-55.84351	470.80087	-549.24725	-27.74196	163.17989	-761.10028	-22.04428	201.40523	-875.87531	-78.60061	141.24582	-725.31165	65.80218	220.46925	-826.12115	-74.18956	746.32361	-814.60803	-45.24047	608.20862	-813.04926	-42.82043	558.83533	-746.17731	-10.61314	999.17004	-606.06110	-75.45097	156.79625	-647.43005	-67.15898	162.56209	-752.20575	208.13232	813.73724				-863.93182	276.09399	867.49921	-843.40210	273.08960	732.13232	-796.53540	143.30658	568.77008				-826.09686	-80.51099	863.89172	
368	7.340	-180.36180	110.85712	1424.81799	-768.11993	205.99307	536.82916	-675.80896	176.40559	164.17474	-671.06519	52.71992	163.70222	-930.36127	77.78618	1090.29053	-380.72134	269.32388	1213.66370	-845.36261	250.46072	628.76837	-830.53552	247.34442	565.02008	-850.79852	260.74930	485.74872	-517.74847	-72.78184	142.88008	-740.22693	-13.43355	801.61743	-596.92285	26.85965	166.92729	-758.59210	231.58533	1021.35107	-720.67365	159.47418	222.58600	-798.69928	184.76537	179.64139	-772.93146	232.54173	201.75023	-593.80206	219.71899	174.28665	-882.57635	295.91162	144.54929	-557.11743	253.78409	163.85010	-750.85358	8.38948	524.76013	-622.38818	305.87106	157.25577	-527.90729	303.98984	146.50862	-658.47632	299.32928	156.99887	-794.30060	63.93383	565.56030	-791.89252	37.34482	170.98935	-831.97620	-56.92949	471.87781	-549.14386	-27.71647	163.31061	-761.04932	-22.29193	201.76611	-875.88751	-78.54328	141.29303	-725.08521	66.18694	221.22852	-823.30109	-75.06116	747.25378	-812.49609	-45.68886	608.97699	-810.72974	-43.13559	559.03528	-742.99500	-11.78941	1003.04999	-605.89795	-75.14307	156.40846	-647.67749	-67.34197	162.54594	-749.45557	207.67314	814.60101	-356.75781	-57.75158	1198.71265	-861.32935	274.93546	868.01428	-841.31909	271.94284	732.67273	-794.88226	142.55594	569.07977				-822.38873	-81.74168	864.61371	
369	7.360	-193.28247	110.16280	1451.81958	-766.27441	206.03023	536.87238	-675.82758	176.35040	163.89461	-671.19727	52.64568	163.56212	-929.47919	76.73419	1089.55408	-385.92337	269.34985	1232.48511	-842.99066	250.12372	629.93835	-828.58679	247.16231	565.46887	-849.28400	260.42303	486.40210	-517.73126	-72.87766	142.96165	-737.34222	-14.81540	801.93964	-596.91693	26.76698	166.98544	-756.42212	230.73105	1024.12085	-720.55042	159.45166	222.76456	-798.48450	184.95084	179.84268	-772.69690	232.45096	201.76923	-593.44122	219.88812	174.31541	-882.57220	295.78619	144.44374	-557.47601	253.92926	163.88396	-749.14410	7.48453	524.52869	-622.43292	306.07358	157.32164	-527.93463	303.89236	146.52177	-658.31946	299.25919	157.01299	-792.12872	63.24593	565.31805	-791.89337	37.25537	171.11310	-830.44916	-57.54720	472.22455	-549.12921	-27.73054	163.18530	-761.06073	-22.40840	201.73634	-875.89813	-78.59131	141.24451	-724.80225	66.27657	221.52827	-820.11633	-74.86577	747.42169	-809.82690	-46.05832	609.22363	-808.77783	-44.05025	559.76971	-739.54755	-11.95159	1005.53021	-605.87000	-75.28101	156.50792	-647.32172	-67.07325	161.98596	-746.26550	206.89790	815.18176				-858.49408	273.80099	868.70404	-838.60040	271.26273	733.04865	-792.69763	142.16103	569.66626				-818.56818	-82.44119	865.66168	
370	7.380	-207.01817	109.65336	1478.19604	-764.36542	205.60756	537.56812	-675.82690	176.15292	163.93991	-671.06519	52.71992	163.70222	-928.30566	75.95938	1089.03101	-391.45563	269.22977	1250.84216	-840.45703	249.27223	630.38391	-826.91644	247.06071	566.26093	-847.38306	260.55844	486.85538	-517.38885	-72.85648	143.19809				-596.73346	26.46624	167.27463	-754.24414	230.02409	1026.68481	-720.32831	159.55873	222.64037	-798.64667	184.56015	179.73608	-772.56897	232.66287	201.94553	-593.27692	220.00294	174.27519	-882.56628	296.05179	144.68428	-557.00623	254.04166	163.90874	-747.23029	6.78237	524.62268	-622.25439	306.10580	157.33122	-527.79059	303.89105	146.33565	-658.35742	299.17090	157.16507	-790.53168	62.11426	565.55542	-791.44733	37.50079	171.17468	-828.87073	-58.31362	472.36145	-549.05316	-27.72018	163.27455	-760.94745	-22.38922	201.53339	-875.78961	-78.57214	141.09050	-724.78241	65.99741	221.10728	-816.80792	-74.96957	747.43683	-807.64966	-46.90863	609.98523	-806.88812	-44.62118	560.02216	-736.27234	-13.25726	1008.00439	-605.95135	-75.22623	156.16940	-647.58221	-67.19110	162.01160	-742.84723	205.80223	815.97888	-368.22488	-61.82068	1237.51489	-854.69666	273.50409	869.53741	-835.46558	269.71237	734.10400	-790.34326	142.30222	569.63940				-814.88495	-82.68862	865.90717	
